<?xml version="1.0" encoding="UTF-8" standalone="no"?>
<svg
   xmlns:dc="http://purl.org/dc/elements/1.1/"
   xmlns:cc="http://creativecommons.org/ns#"
   xmlns:rdf="http://www.w3.org/1999/02/22-rdf-syntax-ns#"
   xmlns:svg="http://www.w3.org/2000/svg"
   xmlns="http://www.w3.org/2000/svg"
   xmlns:sodipodi="http://sodipodi.sourceforge.net/DTD/sodipodi-0.dtd"
   xmlns:inkscape="http://www.inkscape.org/namespaces/inkscape"
   version="1.1"
   id="view_x5F_in_x5F_AR_x5F_icon"
   x="0px"
   y="0px"
   width="66.492844"
   height="59.364021"
   viewBox="0 0 29.015059 25.9043"
   enable-background="new 0 0 24 24"
   xml:space="preserve"
   sodipodi:docname="ar-exit-icon.svg"
   inkscape:version="0.92.4 (5da689c313, 2019-01-14)"><metadata
   id="metadata4795"><rdf:RDF><cc:Work
       rdf:about=""><dc:format>image/svg+xml</dc:format><dc:type
         rdf:resource="http://purl.org/dc/dcmitype/StillImage" /><dc:title></dc:title></cc:Work></rdf:RDF></metadata><defs
   id="defs4793"><clipPath
     id="_clipPath_e4QRtPGtz9HAsj7Le9BCPDthcz89yM2g"><rect
       y="0"
       x="0"
       width="256"
       height="256"
       id="rect25" /></clipPath></defs><sodipodi:namedview
   pagecolor="#ffffff"
   bordercolor="#666666"
   borderopacity="1"
   objecttolerance="10"
   gridtolerance="10"
   guidetolerance="10"
   inkscape:pageopacity="0"
   inkscape:pageshadow="2"
   inkscape:window-width="1062"
   inkscape:window-height="815"
   id="namedview4791"
   showgrid="false"
   fit-margin-top="0"
   fit-margin-left="0"
   fit-margin-right="0"
   fit-margin-bottom="0"
   inkscape:zoom="4.2909091"
   inkscape:cx="10.211066"
   inkscape:cy="27.5"
   inkscape:window-x="0"
   inkscape:window-y="0"
   inkscape:window-maximized="0"
   inkscape:current-layer="Art_layer" />
  <rect
   id="Bounding_Box"
   x="5.0150599"
   y="1.9042994"
   width="24"
   height="24"
   style="fill:none" />
  <g
   id="Art_layer"
   style="fill:#50a8fc"
   transform="translate(5.01506,1.9042994)">
    
    <path
   d="m 20,3 c 0.55,0 1,0.45 1,1 v 2 h 2 V 4 C 23,2.35 21.65,1 20,1 h -2 v 2 z"
   id="path4779"
   inkscape:connector-curvature="0" />
    <path
   d="M 4,21 C 3.45,21 3,20.55 3,20 V 18 H 1 v 2 c 0,1.65 1.35,3 3,3 h 2 v -2 z"
   id="path4781"
   inkscape:connector-curvature="0" />
    <path
   d="m 20,21 c 0.55,0 1,-0.45 1,-1 v -2 h 2 v 2 c 0,1.65 -1.35,3 -3,3 h -2 v -2 z"
   id="path4783"
   inkscape:connector-curvature="0" />
    <g
   id="g4787">
      <path
   d="m 18.25,7.6 -5.5,-3.18 c -0.46,-0.27 -1.04,-0.27 -1.5,0 L 5.75,7.6 C 5.29,7.87 5,8.36 5,8.9 v 6.35 c 0,0.54 0.29,1.03 0.75,1.3 l 5.5,3.18 c 0.46,0.27 1.04,0.27 1.5,0 l 5.5,-3.18 C 18.71,16.28 19,15.79 19,15.25 V 8.9 C 19,8.36 18.71,7.87 18.25,7.6 Z M 7,14.96 v -4.62 l 4,2.32 v 4.61 z M 12,10.93 8,8.61 12,6.3 16,8.61 Z m 1,6.34 v -4.61 l 4,-2.32 v 4.62 z"
   id="path4785"
   inkscape:connector-curvature="0" />
    </g>
  <g
   id="g4646"
   clip-path="url(#_clipPath_e4QRtPGtz9HAsj7Le9BCPDthcz89yM2g)"
   style="isolation:isolate;fill:#50a8fc;fill-opacity:1"
   transform="matrix(0.05454545,0,0,0.05454545,-5.8205872,-2.9145333)"><path
     id="path4644"
     d="m 76.907,148.824 61.994,61.994 c 3.153,20.767 -5.494,29.392 -25.941,25.94 L 30.054,153.852 c -1.387,1.388 -15.286,-16.963 -15.286,-25.94 0,-8.977 13.369,-24.023 15.286,-25.94 l 82.501,-82.501 c 20.977,-4.003 29.645,4.644 25.94,25.94 L 76.907,107 H 230 c 12.889,12.577 12.899,26.529 0,41.824 z"
     inkscape:connector-curvature="0"
     style="fill:#50a8fc;fill-opacity:1;fill-rule:evenodd" /></g></g>
</svg>