<?xml version="1.0" encoding="UTF-8" standalone="no"?>
<svg
   xmlns:dc="http://purl.org/dc/elements/1.1/"
   xmlns:cc="http://creativecommons.org/ns#"
   xmlns:rdf="http://www.w3.org/1999/02/22-rdf-syntax-ns#"
   xmlns:svg="http://www.w3.org/2000/svg"
   xmlns="http://www.w3.org/2000/svg"
   xmlns:sodipodi="http://sodipodi.sourceforge.net/DTD/sodipodi-0.dtd"
   xmlns:inkscape="http://www.inkscape.org/namespaces/inkscape"
   version="1.1"
   id="view_x5F_in_x5F_AR_x5F_icon"
   x="0px"
   y="0px"
   width="55px"
   height="55px"
   viewBox="0 0 24 24"
   enable-background="new 0 0 24 24"
   xml:space="preserve"
   sodipodi:docname="browser-icon.svg"
   inkscape:version="0.92.4 (5da689c313, 2019-01-14)"><metadata
   id="metadata3749"><rdf:RDF><cc:Work
       rdf:about=""><dc:format>image/svg+xml</dc:format><dc:type
         rdf:resource="http://purl.org/dc/dcmitype/StillImage" /></cc:Work></rdf:RDF></metadata><defs
   id="defs3747" /><sodipodi:namedview
   pagecolor="#ffffff"
   bordercolor="#666666"
   borderopacity="1"
   objecttolerance="10"
   gridtolerance="10"
   guidetolerance="10"
   inkscape:pageopacity="0"
   inkscape:pageshadow="2"
   inkscape:window-width="1229"
   inkscape:window-height="906"
   id="namedview3745"
   showgrid="false"
   inkscape:zoom="4.2909091"
   inkscape:cx="-1.2817797"
   inkscape:cy="27.5"
   inkscape:window-x="618"
   inkscape:window-y="333"
   inkscape:window-maximized="0"
   inkscape:current-layer="view_x5F_in_x5F_AR_x5F_icon" />
  <rect
   id="Bounding_Box"
   x="0"
   y="0"
   fill="none"
   width="24"
   height="24" />
  <g
   id="Art_layer"
   fill="rgb(80,168,252)">
    <path
   style="stroke-width:2.29166675"
   d="M 9.1660156 2.2910156 C 5.3847656 2.2910156 2.2910156 5.3847656 2.2910156 9.1660156 L 2.2910156 45.833984 C 2.2910156 49.615234 5.3847656 52.708984 9.1660156 52.708984 L 45.833984 52.708984 C 49.615234 52.708984 52.708984 49.615234 52.708984 45.833984 L 52.708984 9.1660156 C 52.708984 5.3847656 49.615234 2.2910156 45.833984 2.2910156 L 9.1660156 2.2910156 z M 9.1660156 6.875 L 45.833984 6.875 C 47.094401 6.875 48.125 7.905599 48.125 9.1660156 L 48.125 12.777344 L 6.875 12.777344 L 6.875 9.1660156 C 6.875 7.905599 7.905599 6.875 9.1660156 6.875 z M 6.875 17.478516 L 48.125 17.478516 L 48.125 45.833984 C 48.125 47.094401 47.094401 48.125 45.833984 48.125 L 9.1660156 48.125 C 7.905599 48.125 6.875 47.094401 6.875 45.833984 L 6.875 17.478516 z "
   transform="scale(0.43636364)"
   id="path3735" />
    
    
    
  </g>
<circle
   style="fill:#50a8fc;fill-opacity:1;stroke-width:0.43636364"
   id="path4573"
   cx="19.576271"
   cy="4.2966099"
   r="0.76271188" /><circle
   style="fill:#50a8fc;fill-opacity:1;stroke-width:0.43636364"
   id="path4573-1"
   cx="17.618645"
   cy="4.2966099"
   r="0.76271188" /><circle
   style="fill:#50a8fc;fill-opacity:1;stroke-width:0.43636364"
   id="path4573-7"
   cx="15.661017"
   cy="4.2966099"
   r="0.76271188" /></svg>