<svg version="1.1" xmlns="http://www.w3.org/2000/svg" xmlns:xlink="http://www.w3.org/1999/xlink" xml:space="preserve"
     class="webxr-vr-svg-error" x="0px" y="0px" width="55px" height="55px" viewBox="0 0 28 28"
     fill="rgb(90,90,90)">
    <path d="M17.6,13.4c0-0.2-0.1-0.4-0.1-0.6c0-1.6,1.3-2.8,2.8-2.8s2.8,1.3,2.8,2.8s-1.3,2.8-2.8,2.8
    c-0.2,0-0.4,0-0.6-0.1l5.9,5.9c0.5-0.2,0.9-0.4,1.3-0.8
    c0.7-0.7,1.1-1.6,1.1-2.5V7.4c0-1-0.4-1.9-1.1-2.5c-0.7-0.7-1.6-1-2.5-1
    H8.1 L17.6,13.4z"/>
    <path d="M10.1,14.2c-0.5,0.9-1.4,1.4-2.4,1.4c-1.6,0-2.8-1.3-2.8-2.8c0-1.1,0.6-2,1.4-2.5
    L0.9,5.1 C0.3,5.7,0,6.6,0,7.5v10.7c0,1,0.4,1.8,1.1,2.5c0.7,0.7,1.6,1,2.5,1
    h5c0.7,0,1.3-0.1,1.8-0.5c0.6-0.3,1-0.8,1.3-1.4l1.3-2.6 L10.1,14.2z"/>
    <path d="M25.5,27.5l-25-25C-0.1,2-0.1,1,0.5,0.4l0,0C1-0.1,2-0.1,2.6,0.4l25,25c0.6,0.6,0.6,1.5
    ,0,2.1l0,0 C27,28.1,26,28.1,25.5,27.5z"/>
</svg>