<?xml version="1.0" encoding="UTF-8" standalone="no"?>
<svg
   xmlns:dc="http://purl.org/dc/elements/1.1/"
   xmlns:cc="http://creativecommons.org/ns#"
   xmlns:rdf="http://www.w3.org/1999/02/22-rdf-syntax-ns#"
   xmlns:svg="http://www.w3.org/2000/svg"
   xmlns="http://www.w3.org/2000/svg"
   xmlns:sodipodi="http://sodipodi.sourceforge.net/DTD/sodipodi-0.dtd"
   xmlns:inkscape="http://www.inkscape.org/namespaces/inkscape"
   version="1.1"
   xml:space="preserve"
   class="webxr-vr-svg"
   x="0px"
   y="0px"
   width="64.589844"
   height="42.44022"
   viewBox="0 0 32.882102 21.22011"
   id="svg3779"
   sodipodi:docname="vr-exit-icon.svg"
   style="fill:#50a8fc"
   inkscape:version="0.92.4 (5da689c313, 2019-01-14)"><metadata
   id="metadata3785"><rdf:RDF><cc:Work
       rdf:about=""><dc:format>image/svg+xml</dc:format><dc:type
         rdf:resource="http://purl.org/dc/dcmitype/StillImage" /><dc:title></dc:title></cc:Work></rdf:RDF></metadata><defs
   id="defs3783"><clipPath
     id="_clipPath_e4QRtPGtz9HAsj7Le9BCPDthcz89yM2g"><rect
       y="0"
       x="0"
       width="256"
       height="256"
       id="rect25" /></clipPath><clipPath
     id="_clipPath_e4QRtPGtz9HAsj7Le9BCPDthcz89yM2g-6"><rect
       y="0"
       x="0"
       width="256"
       height="256"
       id="rect25-7" /></clipPath></defs><sodipodi:namedview
   pagecolor="#ffffff"
   bordercolor="#666666"
   borderopacity="1"
   objecttolerance="10"
   gridtolerance="10"
   guidetolerance="10"
   inkscape:pageopacity="0"
   inkscape:pageshadow="2"
   inkscape:window-width="1647"
   inkscape:window-height="1104"
   id="namedview3781"
   showgrid="false"
   inkscape:pagecheckerboard="true"
   inkscape:zoom="11.418182"
   inkscape:cx="29.871217"
   inkscape:cy="19.292018"
   inkscape:window-x="309"
   inkscape:window-y="195"
   inkscape:window-maximized="0"
   inkscape:current-layer="svg3779"
   fit-margin-top="0"
   fit-margin-left="0"
   fit-margin-right="0"
   fit-margin-bottom="0" />
    <g
   id="g4646"
   clip-path="url(#_clipPath_e4QRtPGtz9HAsj7Le9BCPDthcz89yM2g)"
   style="isolation:isolate;fill:#50a8fc;fill-opacity:1"
   transform="matrix(0.06363636,0,0,0.06363636,-0.93978176,-1.3422426)"><path
     id="path4644"
     d="m 76.907,148.824 61.994,61.994 c 3.153,20.767 -5.494,29.392 -25.941,25.94 L 30.054,153.852 c -1.387,1.388 -15.286,-16.963 -15.286,-25.94 0,-8.977 13.369,-24.023 15.286,-25.94 l 82.501,-82.501 c 20.977,-4.003 29.645,4.644 25.94,25.94 L 76.907,107 H 230 c 12.889,12.577 12.899,26.529 0,41.824 z"
     inkscape:connector-curvature="0"
     style="fill:#50a8fc;fill-opacity:1;fill-rule:evenodd" /></g><path
   style="fill:#50a8fc;fill-opacity:1;stroke-width:1"
   d="m 8.2816772,3.4431468 c -1,0 -1.6992898,0.3997159 -2.3992897,1.0997159 -0.1426432,0.1222655 -0.2645884,0.2643705 -0.374858,0.415625 h 8.3960225 l 0.148154,0.1441761 c 0.477403,0.4658474 0.769494,1.028099 0.769602,1.6286932 1.08e-4,0.6005942 -0.276149,1.1801153 -0.735796,1.7251421 L 13.932388,8.6384594 H 5.1823874 l 3.1957387,3.1927556 0.025852,0.166051 c 0.1122602,0.739393 0.034462,1.398644 -0.4066762,1.839489 -0.4411382,0.440842 -1.1026936,0.512162 -1.8335227,0.388778 L 6.0026999,14.198687 4.8821033,13.07809 v 4.664346 c 0,1.000001 0.299858,1.900143 0.899858,2.600143 0.7,0.7 1.4997159,1.099715 2.4997159,1.099715 h 5.0004258 c 0.7,0 1.299716,-0.199147 1.799716,-0.499147 0.6,-0.3 1.000568,-0.8 1.300569,-1.4 l 1.499431,-2.600142 c 0.187341,-0.374681 0.06067,-0.481568 0.86108,-0.494176 -0.01987,-8.66e-4 -0.0415,-0.006 -0.06065,-0.006 h 0.199858 c -0.0633,0 -0.08512,0.0051 -0.139204,0.006 0.291274,0.01272 0.645163,0.119714 0.738778,0.494176 l 1.4,2.600142 c 0.3,0.6 0.800568,1.1 1.300568,1.4 0.6,0.3 1.199716,0.499147 1.799716,0.499147 h 5.000427 c 0.999999,0 1.999573,-0.399715 2.699573,-1.099715 0.7,-0.7 1.200142,-1.600142 1.200142,-2.600143 V 7.0425786 c 0,-0.9 -0.500142,-1.8997159 -1.200142,-2.4997159 -0.7,-0.7 -1.700142,-1.0997159 -2.600142,-1.0997159 z m 4.0001418,6.1995738 c 1.6,0 2.8,1.2999994 2.8,2.8000004 0,1.5 -1.3,2.8 -2.8,2.8 -1.6,0 -2.7999998,-1.3 -2.7999998,-2.8 0,-1.6 1.2999998,-2.8000004 2.7999998,-2.8000004 z m 12.700426,0 c 1.6,0 2.899432,1.2000004 2.899432,2.8000004 0,1.5 -1.299432,2.8 -2.899432,2.8 -1.599999,0 -2.8,-1.3 -2.8,-2.8 0,-1.6 1.3,-2.8000004 2.8,-2.8000004 z"
   id="path3777"
   inkscape:connector-curvature="0"
   sodipodi:nodetypes="sccccscccccccccscssccccccccccssssscssssssssssss" />
</svg>