{
    "asset" : {
        "generator" : "Khronos glTF Blender I/O v1.0.5",
        "version" : "2.0"
    },
    "scene" : 0,
    "scenes" : [
        {
            "name" : "Scene",
            "nodes" : [
                12
            ]
        }
    ],
    "nodes" : [
        {
            "mesh" : 0,
            "name" : "Mesh_0025_rip_cubo_0.001"
        },
        {
            "children" : [
                0
            ],
            "name" : "Mesh_0025_rip"
        },
        {
            "mesh" : 1,
            "name" : "Mesh_0031_rip1_rocas_0"
        },
        {
            "children" : [
                2
            ],
            "name" : "Mesh_0031_rip1",
            "rotation" : [
                0,
                0,
                0.993954062461853,
                0.10979694873094559
            ],
            "translation" : [
                -19.05035400390625,
                -15.822709083557129,
                0
            ]
        },
        {
            "mesh" : 2,
            "name" : "Raised_Platform",
            "translation" : [
                0,
                0,
                -1.9758535623550415
            ]
        },
        {
            "children" : [
                4
            ],
            "name" : "Mesh_0032_rip",
            "scale" : [
                1.4226194620132446,
                1.4226194620132446,
                2.731854200363159
            ],
            "translation" : [
                2.881277322769165,
                4.13637638092041,
                5.274773597717285
            ]
        },
        {
            "mesh" : 3,
            "name" : "Mesh_0048_rip_palmera2_0",
            "translation" : [
                -19.953596115112305,
                -10.968500137329102,
                -7.742843990854453e-06
            ]
        },
        {
            "children" : [
                6
            ],
            "name" : "Mesh_0048_rip",
            "translation" : [
                -8.93567180633545,
                -10.495841026306152,
                0
            ]
        },
        {
            "children" : [
                1,
                3,
                5,
                7
            ],
            "name" : "Jaula"
        },
        {
            "children" : [
                8
            ],
            "name" : "RootNode"
        },
        {
            "children" : [
                9
            ],
            "name" : "Jaula Jurassic.fbx",
            "rotation" : [
                0.7071068286895752,
                0,
                0,
                0.7071067094802856
            ]
        },
        {
            "children" : [
                10
            ],
            "name" : "RootNode (model correction matrix)"
        },
        {
            "children" : [
                11
            ],
            "name" : "RootNode (gltf orientation matrix)",
            "rotation" : [
                0.7071070671081543,
                0,
                0.7071065902709961,
                -8.964996567328853e-08
            ],
            "translation" : [
                11.480140686035156,
                0,
                1.5996758937835693
            ]
        }
    ],
    "materials" : [
        {
            "emissiveFactor" : [
                0,
                0,
                0
            ],
            "name" : "suelo",
            "pbrMetallicRoughness" : {
                "baseColorTexture" : {
                    "index" : 0,
                    "texCoord" : 0
                },
                "metallicFactor" : 0,
                "roughnessFactor" : 0.6000000238418579
            }
        },
        {
            "name" : "globaOneSided",
            "pbrMetallicRoughness" : {
                "baseColorTexture" : {
                    "index" : 1,
                    "texCoord" : 0
                },
                "metallicFactor" : 0,
                "roughnessFactor" : 0.8202614784240723
            }
        },
        {
            "doubleSided" : true,
            "name" : "globalTwoSided",
            "pbrMetallicRoughness" : {
                "baseColorTexture" : {
                    "index" : 2,
                    "texCoord" : 0
                },
                "metallicFactor" : 0,
                "roughnessFactor" : 0.8202614784240723
            }
        }
    ],
    "meshes" : [
        {
            "name" : "Mesh_0025_rip_cubo_0.001",
            "primitives" : [
                {
                    "attributes" : {
                        "POSITION" : 0,
                        "NORMAL" : 1,
                        "TEXCOORD_0" : 2
                    },
                    "indices" : 3,
                    "material" : 0
                }
            ]
        },
        {
            "name" : "Mesh_0031_rip1_rocas_0",
            "primitives" : [
                {
                    "attributes" : {
                        "POSITION" : 4,
                        "NORMAL" : 5,
                        "TEXCOORD_0" : 6
                    },
                    "indices" : 7,
                    "material" : 1
                }
            ]
        },
        {
            "name" : "Mesh_0032_rip_Multi_0",
            "primitives" : [
                {
                    "attributes" : {
                        "POSITION" : 8,
                        "NORMAL" : 9,
                        "TEXCOORD_0" : 10
                    },
                    "indices" : 11,
                    "material" : 2
                }
            ]
        },
        {
            "name" : "Mesh_0048_rip_palmera2_0",
            "primitives" : [
                {
                    "attributes" : {
                        "POSITION" : 12,
                        "NORMAL" : 13,
                        "TEXCOORD_0" : 14
                    },
                    "indices" : 15,
                    "material" : 2
                }
            ]
        }
    ],
    "textures" : [
        {
            "source" : 0
        },
        {
            "source" : 1
        },
        {
            "source" : 1
        }
    ],
    "images" : [
        {
            "mimeType" : "image/png",
            "name" : "suelo_baseColor",
            "uri" : "suelo_baseColor.png"
        },
        {
            "mimeType" : "image/png",
            "name" : "baseColorAtlas",
            "uri" : "baseColorAtlas.png"
        }
    ],
    "accessors" : [
        {
            "bufferView" : 0,
            "componentType" : 5126,
            "count" : 353,
            "max" : [
                22.33025550842285,
                21.57973861694336,
                0.20614799857139587
            ],
            "min" : [
                -45.131752014160156,
                -54.90245819091797,
                -1.0516890287399292
            ],
            "type" : "VEC3"
        },
        {
            "bufferView" : 1,
            "componentType" : 5126,
            "count" : 353,
            "type" : "VEC3"
        },
        {
            "bufferView" : 2,
            "componentType" : 5126,
            "count" : 353,
            "type" : "VEC2"
        },
        {
            "bufferView" : 3,
            "componentType" : 5123,
            "count" : 1716,
            "type" : "SCALAR"
        },
        {
            "bufferView" : 4,
            "componentType" : 5126,
            "count" : 16981,
            "max" : [
                38.153358459472656,
                40.5721435546875,
                24.976303100585938
            ],
            "min" : [
                -52.322818756103516,
                -51.369140625,
                -1.1363680362701416
            ],
            "type" : "VEC3"
        },
        {
            "bufferView" : 5,
            "componentType" : 5126,
            "count" : 16981,
            "type" : "VEC3"
        },
        {
            "bufferView" : 6,
            "componentType" : 5126,
            "count" : 16981,
            "type" : "VEC2"
        },
        {
            "bufferView" : 7,
            "componentType" : 5123,
            "count" : 28032,
            "type" : "SCALAR"
        },
        {
            "bufferView" : 8,
            "componentType" : 5126,
            "count" : 202,
            "max" : [
                -0.5284394025802612,
                -8.25153923034668,
                0.13227534294128418
            ],
            "min" : [
                -4.337855339050293,
                -13.686519622802734,
                -1.9670809507369995
            ],
            "type" : "VEC3"
        },
        {
            "bufferView" : 9,
            "componentType" : 5126,
            "count" : 202,
            "type" : "VEC3"
        },
        {
            "bufferView" : 10,
            "componentType" : 5126,
            "count" : 202,
            "type" : "VEC2"
        },
        {
            "bufferView" : 11,
            "componentType" : 5123,
            "count" : 324,
            "type" : "SCALAR"
        },
        {
            "bufferView" : 12,
            "componentType" : 5126,
            "count" : 20473,
            "max" : [
                41.483917236328125,
                34.155189514160156,
                8.491086959838867
            ],
            "min" : [
                -6.401928901672363,
                -15.012578964233398,
                -0.18059925734996796
            ],
            "type" : "VEC3"
        },
        {
            "bufferView" : 13,
            "componentType" : 5126,
            "count" : 20473,
            "type" : "VEC3"
        },
        {
            "bufferView" : 14,
            "componentType" : 5126,
            "count" : 20473,
            "type" : "VEC2"
        },
        {
            "bufferView" : 15,
            "componentType" : 5123,
            "count" : 44805,
            "type" : "SCALAR"
        }
    ],
    "bufferViews" : [
        {
            "buffer" : 0,
            "byteLength" : 4236,
            "byteOffset" : 0
        },
        {
            "buffer" : 0,
            "byteLength" : 4236,
            "byteOffset" : 4236
        },
        {
            "buffer" : 0,
            "byteLength" : 2824,
            "byteOffset" : 8472
        },
        {
            "buffer" : 0,
            "byteLength" : 3432,
            "byteOffset" : 11296
        },
        {
            "buffer" : 0,
            "byteLength" : 203772,
            "byteOffset" : 14728
        },
        {
            "buffer" : 0,
            "byteLength" : 203772,
            "byteOffset" : 218500
        },
        {
            "buffer" : 0,
            "byteLength" : 135848,
            "byteOffset" : 422272
        },
        {
            "buffer" : 0,
            "byteLength" : 56064,
            "byteOffset" : 558120
        },
        {
            "buffer" : 0,
            "byteLength" : 2424,
            "byteOffset" : 614184
        },
        {
            "buffer" : 0,
            "byteLength" : 2424,
            "byteOffset" : 616608
        },
        {
            "buffer" : 0,
            "byteLength" : 1616,
            "byteOffset" : 619032
        },
        {
            "buffer" : 0,
            "byteLength" : 648,
            "byteOffset" : 620648
        },
        {
            "buffer" : 0,
            "byteLength" : 245676,
            "byteOffset" : 621296
        },
        {
            "buffer" : 0,
            "byteLength" : 245676,
            "byteOffset" : 866972
        },
        {
            "buffer" : 0,
            "byteLength" : 163784,
            "byteOffset" : 1112648
        },
        {
            "buffer" : 0,
            "byteLength" : 89610,
            "byteOffset" : 1276432
        }
    ],
    "buffers" : [
        {
            "byteLength" : 1366044,
            "uri" : "scene-optimized.bin"
        }
    ]
}
