{
    "asset" : {
        "generator" : "Khronos glTF Blender I/O v1.0.5",
        "version" : "2.0"
    },
    "scene" : 0,
    "scenes" : [
        {
            "name" : "Scene",
            "nodes" : [
                0,
                1,
                2,
                19
            ]
        }
    ],
    "nodes" : [
        {
            "name" : "Light",
            "rotation" : [
                0.16907575726509094,
                0.7558803558349609,
                -0.27217137813568115,
                0.570947527885437
            ],
            "translation" : [
                4.076245307922363,
                5.903861999511719,
                -1.0054539442062378
            ]
        },
        {
            "name" : "Camera",
            "rotation" : [
                0.483536034822464,
                0.33687159419059753,
                -0.20870360732078552,
                0.7804827094078064
            ],
            "translation" : [
                7.358891487121582,
                4.958309173583984,
                6.925790786743164
            ]
        },
        {
            "name" : "Jaula Jurassic.fbx.001",
            "rotation" : [
                -0.7071065902709961,
                0,
                0,
                0.7071069478988647
            ]
        },
        {
            "mesh" : 0,
            "name" : "Mesh_0001_rip6_plantas_0",
            "translation" : [
                2.358614206314087,
                3.2128832572198007e-06,
                6.356010437011719
            ]
        },
        {
            "children" : [
                3
            ],
            "name" : "Mesh_0001_rip6",
            "translation" : [
                -30.565366744995117,
                0,
                23.38153648376465
            ]
        },
        {
            "mesh" : 1,
            "name" : "Mesh_0025_rip_cubo_0"
        },
        {
            "children" : [
                5
            ],
            "name" : "Mesh_0025_rip"
        },
        {
            "mesh" : 2,
            "name" : "Mesh_0031_rip1_rocas_0"
        },
        {
            "children" : [
                7
            ],
            "name" : "Mesh_0031_rip1",
            "rotation" : [
                0,
                0.9939540028572083,
                0,
                0.10979747772216797
            ],
            "translation" : [
                -19.05035400390625,
                0,
                15.822709083557129
            ]
        },
        {
            "mesh" : 3,
            "name" : "Raised_Platform",
            "translation" : [
                0,
                -1.9424045085906982,
                0
            ]
        },
        {
            "children" : [
                9
            ],
            "name" : "Mesh_0032_rip",
            "scale" : [
                1.4226194620132446,
                2.731854200363159,
                1.4226194620132446
            ],
            "translation" : [
                2.881277322769165,
                5.274773597717285,
                -4.13637638092041
            ]
        },
        {
            "mesh" : 4,
            "name" : "Mesh_0041_rip2_palmera_0"
        },
        {
            "children" : [
                11
            ],
            "name" : "Mesh_0041_rip2",
            "translation" : [
                -23.460357666015625,
                0,
                20.329757690429688
            ]
        },
        {
            "mesh" : 5,
            "name" : "Mesh_0048_rip_palmera2_0",
            "translation" : [
                -19.953596115112305,
                -7.742843990854453e-06,
                10.968500137329102
            ]
        },
        {
            "children" : [
                13
            ],
            "name" : "Mesh_0048_rip",
            "translation" : [
                -8.93567180633545,
                0,
                10.495841026306152
            ]
        },
        {
            "children" : [
                4,
                6,
                8,
                10,
                12,
                14
            ],
            "name" : "Jaula"
        },
        {
            "children" : [
                15
            ],
            "name" : "RootNode"
        },
        {
            "children" : [
                16
            ],
            "name" : "Jaula Jurassic.fbx",
            "rotation" : [
                0.7071068286895752,
                0,
                0,
                0.7071067094802856
            ]
        },
        {
            "children" : [
                17
            ],
            "name" : "RootNode (model correction matrix)"
        },
        {
            "children" : [
                18
            ],
            "name" : "RootNode (gltf orientation matrix)",
            "rotation" : [
                -0.4999999403953552,
                -0.49999988079071045,
                -0.4999999403953552,
                0.5000002384185791
            ],
            "translation" : [
                11.480140686035156,
                0,
                1.599675178527832
            ]
        }
    ],
    "materials" : [
        {
            "doubleSided" : true,
            "emissiveFactor" : [
                0,
                0,
                0
            ],
            "name" : "plantas",
            "pbrMetallicRoughness" : {
                "baseColorTexture" : {
                    "index" : 0,
                    "texCoord" : 0
                },
                "metallicFactor" : 0,
                "roughnessFactor" : 0.6000000238418579
            }
        },
        {
            "name" : "cubo",
            "pbrMetallicRoughness" : {
                "baseColorTexture" : {
                    "index" : 1,
                    "texCoord" : 0
                },
                "metallicFactor" : 0,
                "roughnessFactor" : 0.6000000238418579
            }
        },
        {
            "emissiveFactor" : [
                0,
                0,
                0
            ],
            "name" : "suelo",
            "pbrMetallicRoughness" : {
                "baseColorTexture" : {
                    "index" : 2,
                    "texCoord" : 0
                },
                "metallicFactor" : 0,
                "roughnessFactor" : 0.6000000238418579
            }
        },
        {
            "emissiveFactor" : [
                0,
                0,
                0
            ],
            "name" : "rocas",
            "pbrMetallicRoughness" : {
                "baseColorTexture" : {
                    "index" : 3,
                    "texCoord" : 0
                },
                "metallicFactor" : 0,
                "roughnessFactor" : 0.6000000238418579
            }
        },
        {
            "doubleSided" : true,
            "emissiveFactor" : [
                0,
                0,
                0
            ],
            "name" : "Multi",
            "pbrMetallicRoughness" : {
                "baseColorTexture" : {
                    "index" : 4,
                    "texCoord" : 0
                },
                "metallicFactor" : 0,
                "roughnessFactor" : 0.6000000238418579
            }
        },
        {
            "doubleSided" : true,
            "emissiveFactor" : [
                0,
                0,
                0
            ],
            "name" : "metal",
            "pbrMetallicRoughness" : {
                "baseColorTexture" : {
                    "index" : 5,
                    "texCoord" : 0
                },
                "metallicRoughnessTexture" : {
                    "index" : 6,
                    "texCoord" : 0
                }
            }
        },
        {
            "doubleSided" : true,
            "emissiveFactor" : [
                0,
                0,
                0
            ],
            "name" : "palmera",
            "pbrMetallicRoughness" : {
                "baseColorTexture" : {
                    "index" : 7,
                    "texCoord" : 0
                },
                "metallicFactor" : 0,
                "roughnessFactor" : 0.6000000238418579
            }
        },
        {
            "doubleSided" : true,
            "emissiveFactor" : [
                0,
                0,
                0
            ],
            "name" : "palmera2",
            "pbrMetallicRoughness" : {
                "baseColorTexture" : {
                    "index" : 8,
                    "texCoord" : 0
                },
                "metallicFactor" : 0,
                "roughnessFactor" : 0.6000000238418579
            }
        }
    ],
    "meshes" : [
        {
            "name" : "Mesh_0001_rip6_plantas_0",
            "primitives" : [
                {
                    "attributes" : {
                        "POSITION" : 0,
                        "NORMAL" : 1,
                        "TEXCOORD_0" : 2
                    },
                    "indices" : 3,
                    "material" : 0
                }
            ]
        },
        {
            "name" : "Mesh_0025_rip_cubo_0",
            "primitives" : [
                {
                    "attributes" : {
                        "POSITION" : 4,
                        "NORMAL" : 5,
                        "TEXCOORD_0" : 6
                    },
                    "indices" : 7,
                    "material" : 1
                },
                {
                    "attributes" : {
                        "POSITION" : 8,
                        "NORMAL" : 9,
                        "TEXCOORD_0" : 10
                    },
                    "indices" : 11,
                    "material" : 2
                }
            ]
        },
        {
            "name" : "Mesh_0031_rip1_rocas_0",
            "primitives" : [
                {
                    "attributes" : {
                        "POSITION" : 12,
                        "NORMAL" : 13,
                        "TEXCOORD_0" : 14
                    },
                    "indices" : 15,
                    "material" : 3
                }
            ]
        },
        {
            "name" : "Mesh_0032_rip_Multi_0",
            "primitives" : [
                {
                    "attributes" : {
                        "POSITION" : 16,
                        "NORMAL" : 17,
                        "TEXCOORD_0" : 18
                    },
                    "indices" : 19,
                    "material" : 4
                },
                {
                    "attributes" : {
                        "POSITION" : 20,
                        "NORMAL" : 21,
                        "TEXCOORD_0" : 22
                    },
                    "indices" : 23,
                    "material" : 5
                }
            ]
        },
        {
            "name" : "Mesh_0041_rip2_palmera_0",
            "primitives" : [
                {
                    "attributes" : {
                        "POSITION" : 24,
                        "NORMAL" : 25,
                        "TEXCOORD_0" : 26
                    },
                    "indices" : 27,
                    "material" : 6
                }
            ]
        },
        {
            "name" : "Mesh_0048_rip_palmera2_0",
            "primitives" : [
                {
                    "attributes" : {
                        "POSITION" : 28,
                        "NORMAL" : 29,
                        "TEXCOORD_0" : 30
                    },
                    "indices" : 31,
                    "material" : 7
                }
            ]
        }
    ],
    "textures" : [
        {
            "source" : 0
        },
        {
            "source" : 1
        },
        {
            "source" : 2
        },
        {
            "source" : 3
        },
        {
            "source" : 4
        },
        {
            "source" : 5
        },
        {
            "source" : 6
        },
        {
            "source" : 7
        },
        {
            "source" : 8
        }
    ],
    "images" : [
        {
            "mimeType" : "image/png",
            "name" : "plantas_baseColor",
            "uri" : "plantas_baseColor.png"
        },
        {
            "mimeType" : "image/png",
            "name" : "cubo_baseColor",
            "uri" : "cubo_baseColor.png"
        },
        {
            "mimeType" : "image/png",
            "name" : "suelo_baseColor",
            "uri" : "suelo_baseColor.png"
        },
        {
            "mimeType" : "image/png",
            "name" : "rocas_baseColor",
            "uri" : "rocas_baseColor.png"
        },
        {
            "mimeType" : "image/png",
            "name" : "Multi_baseColor",
            "uri" : "Multi_baseColor.png"
        },
        {
            "mimeType" : "image/png",
            "name" : "metal_baseColor",
            "uri" : "metal_baseColor.png"
        },
        {
            "mimeType" : "image/png",
            "name" : "metal_metallicRoughness",
            "uri" : "metal_metallicRoughness.png"
        },
        {
            "mimeType" : "image/png",
            "name" : "palmera_baseColor",
            "uri" : "palmera_baseColor.png"
        },
        {
            "mimeType" : "image/png",
            "name" : "palmera2_baseColor",
            "uri" : "palmera2_baseColor.png"
        }
    ],
    "accessors" : [
        {
            "bufferView" : 0,
            "componentType" : 5126,
            "count" : 13965,
            "max" : [
                40.8014030456543,
                0.7969110012054443,
                3.8965840339660645
            ],
            "min" : [
                -6.939204692840576,
                -0.05076931044459343,
                -42.42839813232422
            ],
            "type" : "VEC3"
        },
        {
            "bufferView" : 1,
            "componentType" : 5126,
            "count" : 13965,
            "type" : "VEC3"
        },
        {
            "bufferView" : 2,
            "componentType" : 5126,
            "count" : 13965,
            "type" : "VEC2"
        },
        {
            "bufferView" : 3,
            "componentType" : 5123,
            "count" : 25053,
            "type" : "SCALAR"
        },
        {
            "bufferView" : 4,
            "componentType" : 5126,
            "count" : 16603,
            "max" : [
                28.264951705932617,
                24.976303100585938,
                54.34821319580078
            ],
            "min" : [
                -49.861419677734375,
                -1.1363680362701416,
                -27.677337646484375
            ],
            "type" : "VEC3"
        },
        {
            "bufferView" : 5,
            "componentType" : 5126,
            "count" : 16603,
            "type" : "VEC3"
        },
        {
            "bufferView" : 6,
            "componentType" : 5126,
            "count" : 16603,
            "type" : "VEC2"
        },
        {
            "bufferView" : 7,
            "componentType" : 5123,
            "count" : 27252,
            "type" : "SCALAR"
        },
        {
            "bufferView" : 8,
            "componentType" : 5126,
            "count" : 353,
            "max" : [
                22.33025550842285,
                0.20614799857139587,
                54.90245819091797
            ],
            "min" : [
                -45.131752014160156,
                -1.0516890287399292,
                -21.57973861694336
            ],
            "type" : "VEC3"
        },
        {
            "bufferView" : 9,
            "componentType" : 5126,
            "count" : 353,
            "type" : "VEC3"
        },
        {
            "bufferView" : 10,
            "componentType" : 5126,
            "count" : 353,
            "type" : "VEC2"
        },
        {
            "bufferView" : 11,
            "componentType" : 5123,
            "count" : 1716,
            "type" : "SCALAR"
        },
        {
            "bufferView" : 12,
            "componentType" : 5126,
            "count" : 226,
            "max" : [
                22.688343048095703,
                1.774533987045288,
                28.34837532043457
            ],
            "min" : [
                -36.13232421875,
                -0.32585299015045166,
                -14.305102348327637
            ],
            "type" : "VEC3"
        },
        {
            "bufferView" : 13,
            "componentType" : 5126,
            "count" : 226,
            "type" : "VEC3"
        },
        {
            "bufferView" : 14,
            "componentType" : 5126,
            "count" : 226,
            "type" : "VEC2"
        },
        {
            "bufferView" : 15,
            "componentType" : 5123,
            "count" : 780,
            "type" : "SCALAR"
        },
        {
            "bufferView" : 16,
            "componentType" : 5126,
            "count" : 18,
            "max" : [
                -0.6056180000305176,
                0.041143998503685,
                13.686519622802734
            ],
            "min" : [
                -4.21017599105835,
                -1.9670809507369995,
                8.342737197875977
            ],
            "type" : "VEC3"
        },
        {
            "bufferView" : 17,
            "componentType" : 5126,
            "count" : 18,
            "type" : "VEC3"
        },
        {
            "bufferView" : 18,
            "componentType" : 5126,
            "count" : 18,
            "type" : "VEC2"
        },
        {
            "bufferView" : 19,
            "componentType" : 5123,
            "count" : 42,
            "type" : "SCALAR"
        },
        {
            "bufferView" : 20,
            "componentType" : 5126,
            "count" : 184,
            "max" : [
                -0.5284394025802612,
                0.13227534294128418,
                13.667940139770508
            ],
            "min" : [
                -4.337855339050293,
                -1.902930498123169,
                8.25153923034668
            ],
            "type" : "VEC3"
        },
        {
            "bufferView" : 21,
            "componentType" : 5126,
            "count" : 184,
            "type" : "VEC3"
        },
        {
            "bufferView" : 22,
            "componentType" : 5126,
            "count" : 184,
            "type" : "VEC2"
        },
        {
            "bufferView" : 23,
            "componentType" : 5123,
            "count" : 282,
            "type" : "SCALAR"
        },
        {
            "bufferView" : 24,
            "componentType" : 5126,
            "count" : 4692,
            "max" : [
                34.89250183105469,
                8.491079330444336,
                16.14716339111328
            ],
            "min" : [
                -11.830838203430176,
                -0.18060700595378876,
                -30.324750900268555
            ],
            "type" : "VEC3"
        },
        {
            "bufferView" : 25,
            "componentType" : 5126,
            "count" : 4692,
            "type" : "VEC3"
        },
        {
            "bufferView" : 26,
            "componentType" : 5126,
            "count" : 4692,
            "type" : "VEC2"
        },
        {
            "bufferView" : 27,
            "componentType" : 5123,
            "count" : 13584,
            "type" : "SCALAR"
        },
        {
            "bufferView" : 28,
            "componentType" : 5126,
            "count" : 1816,
            "max" : [
                37.87211990356445,
                5.514514446258545,
                9.209722518920898
            ],
            "min" : [
                -3.9393370151519775,
                0,
                -3.7193689346313477
            ],
            "type" : "VEC3"
        },
        {
            "bufferView" : 29,
            "componentType" : 5126,
            "count" : 1816,
            "type" : "VEC3"
        },
        {
            "bufferView" : 30,
            "componentType" : 5126,
            "count" : 1816,
            "type" : "VEC2"
        },
        {
            "bufferView" : 31,
            "componentType" : 5123,
            "count" : 6168,
            "type" : "SCALAR"
        }
    ],
    "bufferViews" : [
        {
            "buffer" : 0,
            "byteLength" : 167580,
            "byteOffset" : 0
        },
        {
            "buffer" : 0,
            "byteLength" : 167580,
            "byteOffset" : 167580
        },
        {
            "buffer" : 0,
            "byteLength" : 111720,
            "byteOffset" : 335160
        },
        {
            "buffer" : 0,
            "byteLength" : 50106,
            "byteOffset" : 446880
        },
        {
            "buffer" : 0,
            "byteLength" : 199236,
            "byteOffset" : 496988
        },
        {
            "buffer" : 0,
            "byteLength" : 199236,
            "byteOffset" : 696224
        },
        {
            "buffer" : 0,
            "byteLength" : 132824,
            "byteOffset" : 895460
        },
        {
            "buffer" : 0,
            "byteLength" : 54504,
            "byteOffset" : 1028284
        },
        {
            "buffer" : 0,
            "byteLength" : 4236,
            "byteOffset" : 1082788
        },
        {
            "buffer" : 0,
            "byteLength" : 4236,
            "byteOffset" : 1087024
        },
        {
            "buffer" : 0,
            "byteLength" : 2824,
            "byteOffset" : 1091260
        },
        {
            "buffer" : 0,
            "byteLength" : 3432,
            "byteOffset" : 1094084
        },
        {
            "buffer" : 0,
            "byteLength" : 2712,
            "byteOffset" : 1097516
        },
        {
            "buffer" : 0,
            "byteLength" : 2712,
            "byteOffset" : 1100228
        },
        {
            "buffer" : 0,
            "byteLength" : 1808,
            "byteOffset" : 1102940
        },
        {
            "buffer" : 0,
            "byteLength" : 1560,
            "byteOffset" : 1104748
        },
        {
            "buffer" : 0,
            "byteLength" : 216,
            "byteOffset" : 1106308
        },
        {
            "buffer" : 0,
            "byteLength" : 216,
            "byteOffset" : 1106524
        },
        {
            "buffer" : 0,
            "byteLength" : 144,
            "byteOffset" : 1106740
        },
        {
            "buffer" : 0,
            "byteLength" : 84,
            "byteOffset" : 1106884
        },
        {
            "buffer" : 0,
            "byteLength" : 2208,
            "byteOffset" : 1106968
        },
        {
            "buffer" : 0,
            "byteLength" : 2208,
            "byteOffset" : 1109176
        },
        {
            "buffer" : 0,
            "byteLength" : 1472,
            "byteOffset" : 1111384
        },
        {
            "buffer" : 0,
            "byteLength" : 564,
            "byteOffset" : 1112856
        },
        {
            "buffer" : 0,
            "byteLength" : 56304,
            "byteOffset" : 1113420
        },
        {
            "buffer" : 0,
            "byteLength" : 56304,
            "byteOffset" : 1169724
        },
        {
            "buffer" : 0,
            "byteLength" : 37536,
            "byteOffset" : 1226028
        },
        {
            "buffer" : 0,
            "byteLength" : 27168,
            "byteOffset" : 1263564
        },
        {
            "buffer" : 0,
            "byteLength" : 21792,
            "byteOffset" : 1290732
        },
        {
            "buffer" : 0,
            "byteLength" : 21792,
            "byteOffset" : 1312524
        },
        {
            "buffer" : 0,
            "byteLength" : 14528,
            "byteOffset" : 1334316
        },
        {
            "buffer" : 0,
            "byteLength" : 12336,
            "byteOffset" : 1348844
        }
    ],
    "buffers" : [
        {
            "byteLength" : 1361180,
            "uri" : "scene.bin"
        }
    ]
}
